<?xml version="1.0" encoding="utf-8"?>
<!DOCTYPE svg PUBLIC "-//W3C//DTD SVG 1.0//EN" "http://www.w3.org/TR/2001/REC-SVG-20010904/DTD/svg10.dtd">
<svg version="1.0" xmlns="http://www.w3.org/2000/svg" width="1024px" height="124px" viewBox="0 0 1024 124" preserveAspectRatio="xMidYMid meet">
 <g fill="#8e0000">
  <path d="M 40.45 119.60 c -0.65 -0.55 -1.75 -1.15 -2.45 -1.35 -0.70 -0.20 -2.75 -1.25 -4.60 -2.30 -1.80 -1.10 -3.50 -1.95 -3.75 -1.95 -0.45 0 -4.80 -4.40 -8.55 -8.60 -1.15 -1.30 -2.10 -2.75 -2.10 -3.20 0 -1 2.95 -3.85 5.90 -5.75 1.20 -0.75 3.65 -2.70 5.45 -4.30 1.80 -1.60 4.35 -3.60 5.60 -4.45 1.25 -0.85 3.80 -2.95 5.65 -4.60 1.85 -1.70 4.10 -3.45 5 -3.90 0.85 -0.45 3.20 -2.30 5.20 -4.15 4.60 -4.20 9.20 -7.70 9.55 -7.35 0.30 0.30 -0.40 2.20 -2.40 6.70 -0.50 1.15 -0.95 2.65 -0.95 3.25 0 0.60 -0.45 1.85 -1 2.75 -0.55 0.90 -1 2.15 -1 2.80 0 0.65 -0.55 2 -1.25 3 -0.70 1 -1.25 2.40 -1.25 3.05 0 0.70 -0.40 2.20 -0.95 3.35 -1.10 2.55 -1.95 4.90 -2.75 7.65 -0.30 1.10 -0.95 2.70 -1.45 3.60 -0.45 0.90 -0.85 2 -0.85 2.50 0 0.50 -0.35 1.60 -0.80 2.40 -1.30 2.50 -2.75 6.85 -3.10 9.25 -0.40 2.55 -1.30 3.05 -3.15 1.60 z "/>
  <path d="M 984.50 119.20 c -0.30 -0.70 -0.50 -1.60 -0.50 -2 0 -0.40 -0.35 -1.40 -0.75 -2.15 -0.40 -0.80 -1.40 -3.45 -2.20 -5.85 -0.85 -2.45 -2.65 -7.70 -4.10 -11.70 -1.40 -4 -3.90 -11.05 -5.55 -15.75 -1.60 -4.65 -3.30 -9.40 -3.70 -10.50 -0.45 -1.10 -0.90 -2.40 -1.05 -2.90 -0.30 -1 6 3.55 9.85 7.15 1.25 1.15 3.20 2.75 4.40 3.50 1.20 0.80 3.55 2.70 5.20 4.25 1.70 1.55 4.30 3.65 5.80 4.65 1.55 1 4.05 2.95 5.55 4.35 1.55 1.40 3.60 3.10 4.55 3.75 3.65 2.45 6.50 5.15 6.50 6.05 0 0.50 -2.15 3.30 -4.80 6.15 -3.70 4.05 -5.50 5.55 -8 6.85 -1.80 0.95 -3.50 2 -3.80 2.30 -0.30 0.35 -1 0.65 -1.60 0.65 -0.60 0 -1.85 0.55 -2.80 1.25 -2.10 1.55 -2.40 1.55 -3 -0.05 z "/>
  <path d="M 56.75 114.95 c -4.50 -0.80 -4.75 -0.90 -4.75 -2 0 -0.55 0.35 -1.80 0.80 -2.85 0.45 -1 1.45 -3.65 2.20 -5.85 0.80 -2.20 2.15 -5.90 3 -8.25 0.85 -2.35 2 -5.50 2.50 -7 0.50 -1.50 1.85 -5.35 3 -8.50 1.15 -3.15 2.75 -7.65 3.55 -10 3.30 -9.35 4.25 -11.10 7.30 -13.25 1.60 -1.10 4.25 -3.25 5.90 -4.80 1.65 -1.55 3.70 -3.20 4.60 -3.65 0.85 -0.45 2.90 -2 4.50 -3.45 1.60 -1.45 4.70 -4 6.90 -5.60 2.20 -1.60 5.15 -4 6.50 -5.25 3.25 -3 5.45 -4.50 6.60 -4.50 1 0 4.50 3.20 17.55 16.15 5 5 8.60 8.95 8.60 9.45 0 2.70 -45.05 47.25 -50.95 50.35 -0.70 0.40 -2 1.25 -2.85 1.85 -2.45 1.90 -12.10 6.20 -13.85 6.20 -0.90 0 -2.40 0.20 -3.35 0.45 -3.15 0.80 -5.20 0.95 -7.75 0.50 z "/>
  <path d="M 963.25 114.75 c -1.35 -0.40 -3.30 -0.75 -4.25 -0.75 -0.95 0 -2.40 -0.45 -3.25 -1 -0.80 -0.55 -2.05 -1 -2.70 -1 -0.65 0 -1.80 -0.50 -2.55 -1.10 -0.80 -0.65 -2.80 -1.95 -4.50 -2.90 -4.30 -2.40 -10.85 -7.95 -21.85 -18.45 -8.20 -7.85 -12.65 -12.35 -29.30 -29.85 -3.05 -3.20 -3.35 -3.70 -2.90 -4.85 0.25 -0.65 0.70 -1.30 1 -1.40 0.25 -0.10 5.75 -5.45 12.20 -11.80 8.15 -8.05 12.10 -11.65 12.85 -11.65 1.30 0 4.65 2.30 8.30 5.85 1.50 1.40 3.80 3.20 5.10 3.95 1.30 0.75 3.55 2.50 5 3.90 1.45 1.40 3.95 3.40 5.50 4.45 1.55 1.05 4 3 5.35 4.30 1.40 1.35 3.90 3.35 5.60 4.50 3.15 2.10 4.65 3.70 4.65 5 0 0.40 0.35 1.10 0.75 1.55 0.40 0.45 0.95 1.85 1.15 3.10 0.25 1.25 0.80 2.80 1.25 3.45 0.50 0.65 0.85 1.75 0.85 2.45 0 0.70 0.45 1.95 1 2.75 0.55 0.85 1 2 1 2.65 0 0.60 0.45 1.95 1 2.95 0.55 1.05 1 2.30 1 2.80 0 0.50 0.35 1.60 0.80 2.45 0.45 0.80 1.65 4 2.70 7.10 1.05 3.05 3.05 8.90 4.50 12.95 1.45 4.05 2.50 7.50 2.35 7.65 -0.25 0.25 -4.60 1 -8.35 1.45 -0.95 0.10 -2.85 -0.10 -4.25 -0.50 z "/>
  <path d="M 99.10 103.05 c -0.15 -0.40 0.25 -1.10 0.95 -1.65 1.15 -0.90 3.45 -2.90 9.95 -8.60 4.40 -3.90 9.95 -9.20 22.50 -21.55 6.45 -6.40 12.50 -12.15 13.45 -12.85 1.65 -1.25 1.70 -1.35 1.05 -2.85 -0.35 -0.90 -2.40 -3 -4.70 -4.90 -2.20 -1.85 -7.10 -6.30 -10.80 -9.95 -15.30 -14.90 -23.35 -22.35 -31.90 -29.40 -1.35 -1.10 -2.35 -2.35 -2.35 -2.90 0 -1 2.45 -1 415.60 -1.10 384.40 -0.05 415.65 0 415.65 0.75 0 0.80 -7.55 7.80 -15 14 -1.80 1.45 -7.40 6.75 -12.50 11.70 -10.45 10.25 -14.75 14.25 -19.60 18.45 -1.90 1.60 -3.40 3.30 -3.40 3.75 0 0.50 1.75 2.50 3.90 4.50 2.10 1.95 8.90 8.60 15.10 14.70 6.20 6.15 13.15 12.85 15.50 14.95 2.35 2.05 5.60 5 7.25 6.45 1.65 1.50 3.85 3.40 4.90 4.20 1.20 0.95 1.80 1.80 1.60 2.25 -0.25 0.65 -47.85 0.75 -413.55 0.75 -354.65 0 -413.35 -0.10 -413.60 -0.70 z "/>
  <path d="M 11.85 98.65 c -0.40 -0.50 -1.90 -2.80 -3.30 -5.10 -2.30 -3.80 -2.55 -4.50 -2.55 -7.10 0 -6.85 1.90 -11.95 7 -18.55 1.10 -1.45 6 -4.40 7.35 -4.40 0.50 0 1.65 -0.45 2.55 -1 1.20 -0.75 1.60 -1.35 1.60 -2.45 0 -1.75 -0.55 -2.25 -4.40 -3.70 -3.45 -1.25 -8.10 -5.15 -8.10 -6.70 0 -0.55 -0.45 -1.60 -1.05 -2.35 -0.95 -1.20 -1.10 -2.20 -1.30 -10.45 -0.30 -9.10 -0.30 -9.10 1.05 -10.65 0.70 -0.90 1.30 -1.90 1.30 -2.25 0 -0.35 1 -2.20 2.20 -4.15 5.10 -8.15 15.05 -15.10 24.50 -17.05 3.95 -0.85 9.60 -1 11.40 -0.30 0.65 0.25 2.15 0.55 3.35 0.75 6.55 0.90 19.85 10.25 37.45 26.20 2.25 2.05 4.10 3.95 4.10 4.20 0 0.25 -0.75 0.75 -1.60 1.15 -0.90 0.35 -3 1.90 -4.65 3.35 -1.65 1.50 -4.05 3.40 -5.30 4.30 -1.30 0.85 -3.55 2.65 -5 4 -1.50 1.35 -3.75 3.15 -5.05 4.05 -1.30 0.85 -3.70 2.80 -5.25 4.25 -1.60 1.45 -4.25 3.55 -5.90 4.65 -1.65 1.15 -3.65 2.75 -4.50 3.65 -0.80 0.85 -2.80 2.45 -4.40 3.55 -1.55 1.10 -4.95 3.70 -7.50 5.85 -2.50 2.15 -5.45 4.40 -6.45 5 -1.05 0.65 -2.30 1.65 -2.75 2.30 -0.50 0.60 -2.80 2.55 -5.15 4.30 -2.35 1.75 -5.45 4.30 -6.95 5.65 -1.50 1.30 -3.85 3.15 -5.30 4.05 -1.40 0.90 -3.35 2.60 -4.35 3.75 -0.95 1.10 -1.85 2.05 -2 2.05 -0.15 0 -0.60 -0.40 -1.05 -0.85 z "/>
  <path d="M 1012.75 98.15 c -1.05 -1.55 -2.90 -3.20 -6.70 -5.80 -1.55 -1.10 -3.90 -3 -5.30 -4.30 -1.35 -1.30 -4.05 -3.50 -6 -4.90 -1.90 -1.40 -4.05 -3.15 -4.75 -3.90 -0.70 -0.75 -2.80 -2.45 -4.75 -3.75 -1.90 -1.30 -4.15 -3.10 -5 -4 -0.80 -0.90 -3.05 -2.70 -5 -4 -1.90 -1.30 -4.30 -3.20 -5.25 -4.25 -0.95 -1 -3.10 -2.75 -4.75 -3.85 -1.65 -1.10 -4 -3 -5.25 -4.15 -1.25 -1.20 -3.95 -3.30 -6 -4.75 -2.05 -1.45 -4.60 -3.50 -5.70 -4.60 -1.05 -1.05 -3.10 -2.70 -4.50 -3.60 -2.60 -1.70 -3.70 -2.55 -6.85 -5.55 -1 -0.95 -2.40 -1.85 -3.15 -2.05 -0.70 -0.15 -1.30 -0.60 -1.30 -0.95 0 -0.40 1.75 -2.20 3.85 -4.10 2.10 -1.85 5.65 -5.05 7.85 -7.05 4.70 -4.25 15.75 -12.65 20.05 -15.25 10.05 -6.05 21.10 -6.95 31.05 -2.55 7.30 3.20 14.35 8.95 17.25 14 0.80 1.40 1.90 2.95 2.45 3.45 0.55 0.50 1 1.35 1 1.85 0 0.55 0.45 1.55 1 2.30 0.95 1.15 1 1.95 0.95 9.75 -0.05 8.20 -0.10 8.55 -1.50 11.70 -1.45 3.15 -5.30 7.65 -6.55 7.65 -0.35 0 -2.05 0.65 -3.75 1.50 -2.75 1.30 -3.15 1.65 -3.15 2.85 0 0.75 0.20 1.65 0.40 2 0.45 0.70 2.80 1.65 4.10 1.65 2.40 0 7.50 4.25 9.15 7.60 1.70 3.45 2 5.35 2 13.15 0.05 7.10 -0.55 10.35 -2.45 13.35 -1.45 2.25 -2.25 2.40 -3.45 0.55 z "/>
 </g>
</svg>