<?xml version="1.0" encoding="utf-8"?>
<svg version="1.0" xmlns="http://www.w3.org/2000/svg" width="240px" height="266px" viewBox="0 0 240 266" preserveAspectRatio="xMidYMid meet">
 <g fill="#c40100">
  <path d="M96 262.35 c-1.75 -0.85 -3.40 -1.95 -3.60 -2.35 -0.20 -0.40 -1.60 -3.50 -3.10 -6.90 -2 -4.55 -3.35 -6.80 -5.30 -8.90 -3.70 -4.10 -5.10 -7.15 -5.40 -11.70 -0.25 -4.50 0.75 -7.20 3.90 -10.25 l1.95 -1.95 -2.15 -2.50 c-3.50 -4.10 -6.80 -11.85 -6.80 -15.95 0 -2.25 1.35 -4.90 3.55 -6.90 1.65 -1.50 2.15 -2.45 2.50 -4.30 0.35 -1.90 0.85 -2.80 2.45 -4.20 1.90 -1.70 2 -2 2 -4.60 0 -2.50 0.15 -2.90 1.50 -3.85 3.45 -2.45 8.75 -4.40 15 -5.45 3.45 -0.60 7.05 -1.25 8 -1.45 l1.75 -0.40 -4.25 -2.75 c-4.85 -3.15 -9.95 -7.70 -11.55 -10.30 -1.80 -2.85 -2.45 -6.60 -1.90 -10.80 0.40 -3.05 0.70 -3.80 2.05 -5.05 2.10 -1.95 4.55 -1.60 8.90 1.15 6.90 4.35 21.60 12.55 22.55 12.55 0.45 0 1.20 -1.10 1.95 -2.85 2.10 -5.10 3.95 -7.65 7.05 -9.65 5.60 -3.60 9.85 -3.85 12.80 -0.65 1.50 1.55 1.65 2.05 1.65 4.60 0 3.70 -0.85 6.05 -4.30 12.15 -2.95 5.20 -4.65 10.75 -4.75 15.20 -0.05 2.35 0.25 3.20 2.90 7.80 4.90 8.45 9.45 17.30 11.60 22.75 2.65 6.50 2.80 9.95 0.65 12.95 -2.20 3 -8.75 9.80 -14.55 15.10 -2.90 2.65 -5.35 5.10 -5.45 5.40 -0.15 0.55 9.50 17.30 12 20.90 0.90 1.25 0.90 1.50 0.25 2.15 -0.40 0.40 -1.60 0.85 -2.65 1 l-2 0.25 -2.65 -4.90 c-3.50 -6.40 -7.65 -13.90 -7.75 -14.05 -0.05 -0.05 -2.70 0.90 -5.85 2.20 -3.30 1.30 -8.20 2.80 -11.70 3.50 -5.40 1.10 -6.90 1.25 -15.10 1.05 -5.05 -0.10 -9.15 -0.15 -9.15 -0.10 0 0.05 1.25 2.25 2.75 4.95 1.50 2.65 2.75 4.95 2.75 5.10 0 0.15 0.45 0.80 1 1.50 2.05 2.65 1.05 2.80 -3.50 0.50z m18 -18.15 c10.95 -1.90 15.65 -4.10 23 -10.70 8.05 -7.20 14.75 -13.85 16.70 -16.50 2.60 -3.50 2.80 -4.75 1.55 -8 -2.10 -5.40 -10.80 -21.70 -18.70 -35.20 -5.10 -8.60 -11.40 -15.15 -19.05 -19.75 -2.90 -1.75 -7.15 -4.45 -9.50 -6.05 -2.35 -1.65 -5.10 -3.30 -6.15 -3.70 -1.80 -0.70 -1.95 -0.70 -2.95 0.30 -0.85 0.85 -1 1.50 -0.80 4.40 0.15 2.90 0.45 3.75 2.10 6.25 2.90 4.40 8.35 9.50 12.95 12.15 4.30 2.45 9.10 6.80 11.85 10.85 2.05 3 8 15.65 8 17.05 0 0.60 -0.30 1.35 -0.65 1.65 -1 0.80 -2.30 -0.85 -4.95 -6.20 -3.25 -6.65 -8.65 -14.65 -10.30 -15.35 -3.20 -1.35 -17.45 0.50 -22.15 2.90 -2.45 1.25 -3.95 2.85 -3.95 4.25 0 0.75 0.30 0.75 3.35 -0.10 11.20 -3.10 17.45 1.15 23.45 16 1.95 4.85 2.05 5.55 0.70 5.55 -1 0 -1.80 -0.95 -3.65 -4.50 -2.75 -5.20 -6.45 -10.95 -8.10 -12.65 -2.60 -2.70 -5 -3.20 -10.25 -2.15 -6.75 1.35 -11.40 4.15 -9.65 5.80 0.20 0.25 1.55 0.20 2.90 -0.05 1.40 -0.30 3 -0.55 3.55 -0.55 1.60 -0.05 4.60 2.20 6.55 4.95 2.20 3 6.65 12.05 6.65 13.50 0 3.05 -2.05 0.90 -6.35 -6.45 -2.45 -4.30 -4.05 -5.85 -7.55 -7.45 -2.80 -1.25 -5 -1.05 -8.35 0.60 -2.70 1.35 -5.25 5.10 -5.25 7.75 0 2 1.55 6.45 3.55 10.20 1.85 3.55 2.95 4.60 3.95 4 0.60 -0.35 0.60 -0.80 -0.15 -3.15 -1.20 -3.75 -1.15 -6.35 0.10 -6.35 1 0 1.15 0.35 4.10 8.25 0.55 1.35 0.95 2.75 0.95 3.10 0 0.35 -1.55 1.85 -3.45 3.40 -4.75 3.80 -5.80 6.05 -5.15 10.45 1 6.30 6.15 11.50 12.35 12.35 3.45 0.50 13.60 0.05 18.75 -0.85z m26.50 -75.75 c0 -1.70 1.90 -6.75 5 -13.10 1.65 -3.45 3 -6.60 3 -7.10 0 -1.55 -1.60 -3.60 -3.35 -4.20 -1.60 -0.60 -2 -0.50 -4.95 0.95 -3.75 1.80 -4.75 3.15 -7.15 9.40 -1.45 3.80 -1.50 4.20 -0.85 5.50 0.40 0.80 1.10 1.70 1.50 2.10 0.45 0.35 1.85 2.30 3.10 4.30 1.55 2.45 2.50 3.55 3 3.35 0.40 -0.15 0.70 -0.70 0.70 -1.20z"/>
  <path d="M43.75 164.20 c-2.20 -0.65 -7.55 -2.10 -11.85 -3.15 -4.85 -1.20 -8.75 -2.50 -10.25 -3.40 -4.80 -2.80 -8.80 -8.35 -10.10 -13.95 -1.40 -5.85 2.55 -12.55 9.05 -15.45 4 -1.80 7.75 -1.60 12.30 0.70 2.85 1.45 3.15 1.50 3.40 0.70 2.80 -8.25 6.70 -11.55 14.20 -12 3.50 -0.20 3.95 -0.10 7 1.45 2.50 1.30 3.60 2.25 5.05 4.40 2.35 3.40 3.05 6.10 3 11.30 -0.10 5.65 -0.95 8.05 -5.20 14.40 -4.60 6.90 -9 13.70 -9.80 15.20 -0.75 1.40 -1.70 1.35 -6.80 -0.20z"/>
  <path d="M191.10 163.95 c-0.45 -0.85 -3.60 -5.75 -7 -10.90 -4.05 -6.10 -6.40 -10.25 -6.95 -12.05 -0.90 -3.15 -1 -9.40 -0.15 -12.60 1.30 -4.90 5.50 -9.20 10.20 -10.45 1.15 -0.30 3.45 -0.45 5.15 -0.30 6.10 0.60 10.70 4.20 12.40 9.85 0.50 1.65 0.95 3 1.05 3 0.05 0 1.55 -0.70 3.25 -1.60 2.75 -1.35 3.75 -1.60 6.95 -1.60 3 -0.05 4.20 0.20 5.90 1.10 10.20 5.40 11.45 16.20 3 25.35 -1.55 1.65 -3.85 3.55 -5.10 4.15 -1.25 0.65 -6.50 2.30 -11.65 3.70 -5.20 1.35 -10.50 2.80 -11.90 3.20 -3.60 1 -4.20 0.90 -5.15 -0.85z"/>
  <path d="M107.25 128.85 c-7.15 -5.30 -15.80 -11.65 -19.25 -14.10 -3.45 -2.45 -8.15 -5.85 -10.50 -7.55 -2.35 -1.70 -7.20 -5.10 -10.85 -7.55 -9.05 -6.10 -14 -10.90 -18.50 -17.85 -11.05 -16.90 -14.20 -37.55 -8.15 -53.15 4.80 -12.50 14.80 -20.80 30.25 -25.15 4.75 -1.30 6.20 -1.50 11.95 -1.50 3.55 0 7.30 0.25 8.25 0.55 10 3.15 14.20 5.55 20.35 11.65 2.50 2.50 5.65 6.20 7 8.25 1.35 2.05 2.70 3.80 3 3.90 0.35 0.10 1.45 -1.20 2.50 -2.90 6 -9.95 15.75 -17.45 26.40 -20.45 3.45 -0.95 4.85 -1.05 11 -0.90 8.15 0.25 12.95 1.45 20.60 5.10 9.10 4.35 14.60 9.60 18.75 17.95 3.35 6.60 4.60 12.25 4.55 20.60 -0.05 10.60 -2.25 19.50 -7.35 29.50 -5.25 10.30 -10.90 16.70 -20.95 23.50 -3.20 2.20 -7.75 5.35 -10.05 7 -2.30 1.65 -7.55 5.35 -11.60 8.25 -8.35 5.90 -26.70 19.65 -30.20 22.55 -1.30 1.10 -2.75 1.95 -3.30 1.95 -0.50 0 -6.80 -4.35 -13.90 -9.65z"/>
 </g>
</svg>